<svg xmlns="http://www.w3.org/2000/svg" width="800" height="120" viewBox="0 0 800 120">
  <defs>
    <style>
      .cls-1 {
        stroke: #000;
        stroke-width: 1.25px;
        fill-rule: evenodd;
      }
    </style>
  </defs>
  <path id="Warzone_Mapmaker" data-name="Warzone Mapmaker" class="cls-1" d="M77.626,80.457L103.785,26.3H91.866L73.386,65.9l-1.68-39.6H59.546l-19.6,39.68L39.066,26.3H26.586l2.08,54.16h13.6l19.68-38.64,2,38.64h13.68Zm56.4-1L140.9,46.9a16.984,16.984,0,0,0,.4-3.12,4.4,4.4,0,0,0-1.44-3.64q-1.44-1.159-4.96-1.16h-33.12l-1.84,8.8h27.44a2.34,2.34,0,0,1,1.52.36,1.276,1.276,0,0,1,.4,1,3.808,3.808,0,0,1-.08.88l-4.24,19.84h-18.72q-1.519,0-1.52-1.04a2.879,2.879,0,0,1,.04-0.48c0.027-.16.067-0.373,0.12-0.64l0.88-4.24a2.914,2.914,0,0,1,.72-1.68,2.513,2.513,0,0,1,1.6-.4h14.72l1.44-6.88H103.7a12.969,12.969,0,0,0-3.28.36A5.425,5.425,0,0,0,98.1,56.1a6.758,6.758,0,0,0-1.6,2.4,21.3,21.3,0,0,0-1.12,3.76l-2,9.6a14.614,14.614,0,0,0-.4,2.96,4.316,4.316,0,0,0,1.36,3.48,6.735,6.735,0,0,0,4.4,1.16h35.28Zm15.359,1,6-28.56a2.328,2.328,0,0,1,2.72-2.24h16.16l2.08-9.68h-11.76a9.215,9.215,0,0,0-4.52,1.04,9.928,9.928,0,0,0-3.4,3.36l0.96-4.4h-10.88l-8.56,40.48h11.2Zm59.64,0,2-9.6h-22.64l27.52-22.88,1.68-8h-38l-2,9.44h23.04l-27.84,22.16-1.84,8.88h38.08Zm38.879,0q4.4,0,6.44-1.92a11.325,11.325,0,0,0,2.92-6l5.2-24.64a16.984,16.984,0,0,0,.4-3.12,4.4,4.4,0,0,0-1.44-3.64q-1.44-1.159-4.96-1.16h-27.52q-4.32,0-6.36,1.92a11.325,11.325,0,0,0-2.92,6l-5.2,24.64a17.008,17.008,0,0,0-.4,3.12,4.337,4.337,0,0,0,1.48,3.64q1.48,1.161,4.84,1.16H247.9Zm-0.96-12.08a2.662,2.662,0,0,1-.88,1.68,3.517,3.517,0,0,1-2.08.48h-15.84q-1.76,0-1.76-1.12a2.879,2.879,0,0,1,.04-0.48q0.041-.24.12-0.56l3.44-16.48a3.072,3.072,0,0,1,.76-1.8,2.829,2.829,0,0,1,1.8-.44h15.84q2.16,0,2.16,1.28a7.856,7.856,0,0,1-.16.96Zm57.16,12.08,6.88-32.56a14.734,14.734,0,0,0,.32-3.04,4.422,4.422,0,0,0-1.48-3.76,7.973,7.973,0,0,0-4.76-1.12H286.9a9,9,0,0,0-7.92,4.4l0.96-4.4h-10.8l-8.56,40.48h11.2l6-28.56a3.213,3.213,0,0,1,.88-1.8,2.851,2.851,0,0,1,1.76-.44h16.72q2,0,2,1.28a8.08,8.08,0,0,1-.16.96l-6,28.56H304.1Zm45.319,0,1.92-9.2h-27.28a3.031,3.031,0,0,1-1.44-.24,1.026,1.026,0,0,1-.4-0.96,3.512,3.512,0,0,1,.04-0.52c0.026-.186.066-0.412,0.12-0.68l3.76-17.44a3.649,3.649,0,0,1,.8-1.8,2.8,2.8,0,0,1,1.84-.44h16.08a2.558,2.558,0,0,1,1.32.24,0.981,0.981,0,0,1,.36.88,5.589,5.589,0,0,1-.08,1.04l-1.2,5.44h-16.32l-1.36,6.72h26.96l3.36-15.92a14.437,14.437,0,0,0,.32-2.96,4.39,4.39,0,0,0-1.32-3.48,6.572,6.572,0,0,0-4.36-1.16h-27.36q-4.4,0-6.44,1.92a11.317,11.317,0,0,0-2.92,6l-5.2,24.64a16.92,16.92,0,0,0-.4,3.12,4.334,4.334,0,0,0,1.48,3.64q1.479,1.161,4.92,1.16h32.8Zm82.918,0,11.44-54.16h-12.64l-23.36,37.68-7.04-37.68h-13.12l-11.44,54.16h10.08l6.96-32.88,6.48,32.88h9.52l20.08-32.88-6.96,32.88h10Zm46.72,0,6.88-32.56a17.073,17.073,0,0,0,.4-3.12,4.4,4.4,0,0,0-1.44-3.64q-1.44-1.159-4.96-1.16h-33.12l-1.84,8.8h27.44a2.342,2.342,0,0,1,1.52.36,1.279,1.279,0,0,1,.4,1,3.808,3.808,0,0,1-.08.88l-4.24,19.84H451.3q-1.521,0-1.52-1.04a2.879,2.879,0,0,1,.04-0.48c0.026-.16.066-0.373,0.12-0.64l0.88-4.24a2.914,2.914,0,0,1,.72-1.68,2.513,2.513,0,0,1,1.6-.4h14.72l1.44-6.88h-20.56a12.964,12.964,0,0,0-3.28.36,5.427,5.427,0,0,0-2.32,1.24,6.755,6.755,0,0,0-1.6,2.4,21.348,21.348,0,0,0-1.12,3.76l-2,9.6a14.651,14.651,0,0,0-.4,2.96,4.318,4.318,0,0,0,1.36,3.48,6.735,6.735,0,0,0,4.4,1.16h35.28Zm38.479,0a9.653,9.653,0,0,0,6.2-1.88,10.074,10.074,0,0,0,3.24-6.04l5.2-24.64a14.734,14.734,0,0,0,.32-3.04,4.519,4.519,0,0,0-1.44-3.68q-1.44-1.2-4.96-1.2h-34.24l-12.24,57.44h11.2l10.16-47.52h17.44a2.254,2.254,0,0,1,1.32.28,1.2,1.2,0,0,1,.36,1,5.5,5.5,0,0,1-.08,1.04l-3.52,16.4a3.4,3.4,0,0,1-.84,1.8,2.662,2.662,0,0,1-1.72.44H500.5l-2,9.6h19.04Zm78.24,0,6.88-32.56a14.437,14.437,0,0,0,.32-2.96,4.483,4.483,0,0,0-1.52-3.8,7.791,7.791,0,0,0-4.72-1.16h-13.52a8.807,8.807,0,0,0-4.4,1.04,13.141,13.141,0,0,0-3.68,3.36,3.962,3.962,0,0,0-1.6-3.36,8.131,8.131,0,0,0-4.56-1.04h-13.52a9,9,0,0,0-7.92,4.4l0.96-4.4H537.7l-8.56,40.48h11.2l6-28.56a3.206,3.206,0,0,1,.88-1.8,2.849,2.849,0,0,1,1.76-.44h12.08q1.92,0,1.92,1.2a2.989,2.989,0,0,1-.04.48c-0.028.16-.068,0.348-0.12,0.56l-6,28.56h11.2l6.08-28.8a2.614,2.614,0,0,1,.8-1.56,3.011,3.011,0,0,1,1.84-.44h12q2,0,2,1.2a2.989,2.989,0,0,1-.04.48c-0.028.16-.068,0.348-0.12,0.56l-6,28.56h11.2Zm46.479,0,6.88-32.56a17.073,17.073,0,0,0,.4-3.12,4.4,4.4,0,0,0-1.44-3.64q-1.44-1.159-4.96-1.16h-33.12l-1.84,8.8h27.44a2.344,2.344,0,0,1,1.52.36,1.279,1.279,0,0,1,.4,1,3.865,3.865,0,0,1-.08.88l-4.24,19.84H614.5q-1.521,0-1.52-1.04a2.777,2.777,0,0,1,.04-0.48c0.026-.16.066-0.373,0.12-0.64l0.88-4.24a2.914,2.914,0,0,1,.72-1.68,2.511,2.511,0,0,1,1.6-.4h14.72l1.44-6.88h-20.56a12.964,12.964,0,0,0-3.28.36,5.421,5.421,0,0,0-2.32,1.24,6.755,6.755,0,0,0-1.6,2.4,21.263,21.263,0,0,0-1.12,3.76l-2,9.6a14.579,14.579,0,0,0-.4,2.96,4.314,4.314,0,0,0,1.36,3.48,6.733,6.733,0,0,0,4.4,1.16h35.28Zm15.6,0,12.16-57.44h-11.28l-12.16,57.44h11.28Zm32.24,0,3.28-15.68a14.437,14.437,0,0,0,.32-2.96q0-5.6-6.08-5.6h-7.76l17.76-16.24H685.3l-21.04,19.76-0.88,4.08h16a3.436,3.436,0,0,1,1.92.4,1.561,1.561,0,0,1,.56,1.36,6.335,6.335,0,0,1-.04.68q-0.042.36-.12,0.76l-2.8,13.44h11.2Zm44.92,0,1.92-9.2h-27.28a3.031,3.031,0,0,1-1.44-.24,1.026,1.026,0,0,1-.4-0.96,3.512,3.512,0,0,1,.04-0.52c0.026-.186.066-0.412,0.12-0.68l3.76-17.44a3.649,3.649,0,0,1,.8-1.8,2.8,2.8,0,0,1,1.84-.44h16.08a2.558,2.558,0,0,1,1.32.24,0.981,0.981,0,0,1,.36.88,5.589,5.589,0,0,1-.08,1.04l-1.2,5.44h-16.32l-1.36,6.72h26.96l3.36-15.92a14.437,14.437,0,0,0,.32-2.96,4.39,4.39,0,0,0-1.32-3.48,6.572,6.572,0,0,0-4.36-1.16h-27.36q-4.4,0-6.44,1.92a11.317,11.317,0,0,0-2.92,6l-5.2,24.64a16.92,16.92,0,0,0-.4,3.12,4.334,4.334,0,0,0,1.48,3.64q1.479,1.161,4.92,1.16h32.8Zm17.719,0,6-28.56a2.328,2.328,0,0,1,2.72-2.24h16.16l2.08-9.68h-11.76a9.215,9.215,0,0,0-4.52,1.04,9.928,9.928,0,0,0-3.4,3.36l0.96-4.4H750.1l-8.56,40.48h11.2Z"/>
</svg>
